<?xml version="1.0" encoding="utf-8"?>
<!-- Generator: Adobe Illustrator 26.0.0, SVG Export Plug-In . SVG Version: 6.00 Build 0)  -->
<svg version="1.1" id="图层_1" xmlns="http://www.w3.org/2000/svg" xmlns:xlink="http://www.w3.org/1999/xlink" x="0px" y="0px"
	 viewBox="0 0 800 800" style="enable-background:new 0 0 800 800;" xml:space="preserve">
<g>
	<path d="M678.8,336.73c0,11.13-0.86,22.07-2.48,32.77c-3.9,34.24-11.75,70.94-28.41,105.2c-16.3,33.34-33.05,66.86-59.98,93.76
		c-43.71,43.64-96.72,67.02-158.4,68.82c-127.73,3.79-211.06-90.28-229.37-164.75h236.22c-11.1,19.18-21.45,37.05-31.88,55.07
		h-81.17c-0.31,0.75-0.63,1.5-0.95,2.25c8.8,5.69,17.37,11.82,26.48,16.99c41.97,23.77,87.15,29.14,134.25,22.45
		c33.32-4.74,63.69-16.47,89.33-38.92c16.35-14.31,28.91-31.59,39.24-50.58c1.33-2.44,2.78-4.85,4.32-7.55
		c13.77-33.58,24.25-66.06,30.56-97.16c2.3-13.43,3.54-27.89,3.54-43.43c0-113.88-85.2-180.51-205.83-180.51
		c-161.11,0-269.93,113.88-269.93,269.93c0,107.98,60.73,230.29,237.04,230.29c58.21,0,103.76-14.34,125.69-25.3l9.28,12.65
		C495.75,665.72,441.75,675,381.02,675c-136.65,0-259.83-77.6-259.83-245.47C120.36,244.78,292.45,125,447.66,125
		C596.98,125,678.8,219.48,678.8,336.73z"/>
	<path d="M570.82,238.85c-11.47,19.86-21.72,37.61-32,55.4c-107.33,0-213.98,0-320.71,0c6.81-47.13,121.29-125.58,176.04-120.2
		c-37.89,12.94-70.86,33.34-97.98,62.61c0.16,0.73,0.32,1.46,0.48,2.19C387.24,238.85,477.84,238.85,570.82,238.85z"/>
	<path d="M187.62,410.48c1.76-18.71,3.43-36.46,5.14-54.56c104.09,0,206.13,0,310.43,0c-10.91,18.93-21.1,36.63-31.43,54.56
		C377.66,410.48,284.05,410.48,187.62,410.48z"/>
</g>
</svg>
